<svg width="2400" height="2400" xmlns="http://www.w3.org/2000/svg">
 <defs>
  <path fill="none" stroke="#ffffff" stroke-width="2" stroke-linecap="round" stroke-linejoin="round" stroke-miterlimit="4" stroke-dashoffset="0" id="path8485-0-4" d="m431.89478,2383.6813l290.1318,-16.6432c104.74911,-14.2735 224.69912,-108.1044 233.73807,-217.5157"/>
  <path fill="none" id="path8485-0-1-3" d="m947.2598,2158.6916c34.76761,-99.4857 -15.62139,-126.5153 -17.97708,-242.4933c-10.58241,-128.0185 14.65152,-162.5522 44.2994,-251.0172"/>
  <path fill="none" id="path8485-1-5" d="m857.84089,1734.3291c26.12809,-76.6411 64.45235,-151.6158 84.84634,-168.5219c16.87913,-18.5173 125.40427,-59.6859 163.98327,-52.9015c53.7995,10.0862 248.6358,194.5616 414.3257,300.1571"/>
  <path fill="none" id="path8485-01-1" d="m48.13764,2092.2632c37.88481,142.917 112.30526,259.9085 309.6071,260.5256"/>
  <path fill="none" id="path8485-0-2" d="m550.27234,2286.1159l174.97446,-15.6844c108.15109,-14.9539 156.69125,-113.7925 142.12921,-218.4836"/>
  <path fill="none" id="path8485-2-0" d="m1549.3211,1962.2978c148.0685,123.3787 348.1181,-28.0437 269.4168,-177.2627"/>
  <path fill="none" id="path8485-4-1" d="m1405.4729,1344.2675c-20.2452,-51.4925 -35.2312,-89.8473 -13.7302,-167.6013c46.3391,-98.1597 125.8329,-114.6448 231.1003,-98.6932c45.779,2.7677 82.9546,10.8674 199.1781,-8.7175"/>
  <path fill="none" id="path8485-5-6" d="m1993.8319,902.23322c17.1444,-54.22872 36.7119,-47.5941 49.9985,-159.69058c8.0432,-47.36742 37.5689,-112.31974 103.2577,-165.23198c52.0041,-38.35581 94.4845,-81.56474 129.4811,-153.93564"/>
  <path fill="none" id="path8485-40" d="m1734.7436,324.75961l275.3665,-234.9952c55.2625,-42.5428 151.4573,-49.51355 223.0417,2.73714c62.8969,46.2817 93.7304,82.32504 109.5795,187.39568"/>
  <path fill="none" id="path8483-6" d="m598.5703,1339.872l675.6268,-599.51216"/>
  <path fill="none" id="path8485-0-1-6" d="m947.2598,2158.6916c34.76761,-99.4857 -15.62139,-126.5153 -17.97708,-242.4933c-10.58241,-128.0185 14.65152,-162.5522 44.2994,-251.0172"/>
  <path fill="none" id="path8485-1-51" d="m857.84089,1734.3291c26.12809,-76.6411 64.45235,-151.6158 84.84634,-168.5219c16.87913,-18.5173 125.40427,-59.6859 163.98327,-52.9015c53.7995,10.0862 248.6358,194.5616 414.3257,300.1571"/>
  <path fill="none" id="path8485-01-0" d="m48.13764,2092.2632c37.88481,142.917 112.30526,259.9085 309.6071,260.5256"/>
  <path fill="none" id="path8485-0-9" d="m550.27234,2286.1159l174.97446,-15.6844c108.15109,-14.9539 156.69125,-113.7925 142.12921,-218.4836"/>
  <path fill="none" id="path8485-2-9" d="m1549.3211,1962.2978c148.0685,123.3787 348.1181,-28.0437 269.4168,-177.2627"/>
  <path fill="none" id="path8485-4-6" d="m1405.4729,1344.2675c-20.2452,-51.4925 -35.2312,-89.8473 -13.7302,-167.6013c46.3391,-98.1597 125.8329,-114.6448 231.1003,-98.6932c45.779,2.7677 82.9546,10.8674 199.1781,-8.7175"/>
  <path fill="none" id="path8485-5-8" d="m1993.8319,902.23322c17.1444,-54.22872 36.7119,-47.5941 49.9985,-159.69058c8.0432,-47.36742 37.5689,-112.31974 103.2577,-165.23198c52.0041,-38.35581 94.4845,-81.56474 129.4811,-153.93564"/>
  <path fill="none" id="path8485-3" d="m1734.7436,324.75961l275.3665,-234.9952c55.2625,-42.5428 151.4573,-49.51355 223.0417,2.73714c62.8969,46.2817 93.7304,82.32504 109.5795,187.39568"/>
  <path fill="none" id="path8483-4" d="m598.5703,1339.872l675.6268,-599.51216"/>
  <path fill="none" id="path8485-01-2" d="m48.13764,2092.2632c37.88481,142.917 112.30526,259.9085 309.6071,260.5256"/>
  <path fill="none" id="path8485-0-8" d="m550.27234,2286.1159l174.97446,-15.6844c108.15109,-14.9539 156.69125,-113.7925 142.12921,-218.4836"/>
 </defs>
 <metadata id="metadata7">image/svg+xml</metadata>
 <g>
  <title>background</title>
  <rect fill="none" id="canvas_background" height="2402" width="2402" y="-1" x="-1"/>
 </g>
 <g>
  <title>Layer 1</title>
  <g stroke="null" display="inline" id="layer5">
   <path stroke="#000000" fill="none" stroke-width="99" stroke-linecap="round" stroke-linejoin="round" stroke-miterlimit="4" stroke-dashoffset="0" id="svg_2" d="m312.11285,1664.65926c535.47264,-483.88541 1085.00224,-971.43157 1618.67701,-1433.3282c68.46043,-55.03109 149.52874,-35.8017 210.7965,14.51973c52.6427,43.34872 133.1989,220.38899 -19.85773,373.53725l-53.16744,46.21732c-47.15885,35.37643 -76.71593,87.09211 -85.19607,126.6228l-16.65484,74.07433c-50.93123,232.20401 -224.55653,260.40204 -299.78773,262.10923c-42.37349,1.53546 -97.22413,-3.09497 -149.25324,-6.33111c-133.72464,-5.63143 -182.22896,140.86447 -79.43095,258.94357c34.46943,34.96675 66.23455,72.20924 98.00754,109.52869c60.25652,70.85347 111.86016,157.6573 161.42413,240.58336c25.19052,51.49253 10.60362,97.51804 -33.29003,127.06949c-39.15688,26.36243 -73.42895,20.53042 -119.80668,-11.20969c-146.04202,-105.94104 -291.32278,-211.88216 -441.99469,-317.8232c-14.00854,-8.46731 -25.9162,-9.66726 -36.51259,-6.33111l-77.50921,27.85701c-18.73991,5.17665 -27.09238,18.9086 -35.87201,32.28886c-48.23385,86.8721 -77.40898,189.00302 -64.0572,292.49857c2.76984,34.72466 10.47554,62.13168 17.93601,89.90224c36.88293,144.94895 -76.97865,241.42294 -176.79785,243.11575l-240.21449,21.5259c-117.24869,4.84819 -267.4841,-30.37475 -319.00484,-222.22306c-26.17939,-152.7723 53.63611,-250.08306 141.5664,-343.14773z"/>
  </g>
  <line fill="none" stroke-width="36" x1="1188.162464" y1="810.074289" x2="1352.100353" y2="804.756515" id="svg_1" stroke-linejoin="undefined" stroke-linecap="undefined" transform="rotate(-128.8971710205078 1270.13134765625,807.4154052734375) " stroke="#ff0000"/>
 </g>
</svg>